<svg width="39" height="36" viewBox="0 0 39 36" fill="none" xmlns="http://www.w3.org/2000/svg">
<path d="M7.67567 0H15.3513V3.55H11.5135V7.1H7.67567V0ZM7.67567 17.75H3.83784V7.1H7.67567V17.75ZM11.5135 21.3H7.67567V17.75H11.5135V21.3ZM15.3513 24.85V21.3H11.5135V24.85H3.83784V21.3H0V24.85H3.83784V28.4H11.5135V35.5H15.3513V28.4H19.1892V24.85H15.3513ZM15.3513 24.85V28.4H11.5135V24.85H15.3513ZM26.8649 3.55V7.1H15.3513V3.55H26.8649ZM34.5405 7.1H30.7027V3.55H26.8649V0H34.5405V7.1ZM34.5405 17.75V7.1H38.3784V17.75H34.5405ZM30.7027 21.3V17.75H34.5405V21.3H30.7027ZM26.8649 24.85V21.3H30.7027V24.85H26.8649ZM26.8649 28.4H23.027V24.85H26.8649V28.4ZM26.8649 28.4H30.7027V35.5H26.8649V28.4Z" fill="#FF8800"/>
</svg>
