<svg width="36" height="39" viewBox="0 0 36 39" fill="none" xmlns="http://www.w3.org/2000/svg">
<path d="M0 12.8023H2.53796V38.933H0V12.8023Z" fill="#FF8800"/>
<path d="M6.97934 12.8023H9.5173V38.933H6.97934V12.8023Z" fill="#FF8800"/>
<path d="M32.9936 17.5374H35.5315V38.5822H32.9936V17.5374Z" fill="#FF8800"/>
<path d="M12.3726 12.8023H14.7519V38.7576H12.3726V12.8023Z" fill="#FF8800"/>
<path d="M2.53791 36.3024H7.45521V38.933L2.53796 38.933L2.53791 36.3024Z" fill="#FF8800"/>
<path d="M2.06206 12.8023H6.97934L6.97936 15.4329H2.06206V12.8023Z" fill="#FF8800"/>
<path d="M2.37938 0H6.97943V2.63061H2.37938V0Z" fill="#FF8800"/>
<path d="M2.37938 7.71645H6.97943V10.3471H2.37938V7.71645Z" fill="#FF8800"/>
<path d="M6.97943 2.63061L9.20006 2.63061V7.71645L6.97943 7.71645V2.63061Z" fill="#FF8800"/>
<path d="M0.158659 2.63061L2.37938 2.63061V7.71645L0.158659 7.71645V2.63061Z" fill="#FF8800"/>
<path d="M18.5589 22.6232H20.9382V38.7576H18.5589V22.6232Z" fill="#FF8800"/>
<path d="M26.9658 22.6232H29.3451V38.7576H26.9658V22.6232Z" fill="#FF8800"/>
<path d="M14.7623 15.1777L14.7523 12.8028L30.6394 12.7211L30.6494 15.096L14.7623 15.1777Z" fill="#FF8800"/>
<path d="M30.6142 15.0822H32.9935L32.9936 17.5374H30.6142V15.0822Z" fill="#FF8800"/>
<path d="M18.4002 15.0822H20.7796V17.7128H18.4002V15.0822Z" fill="#FF8800"/>
<path d="M14.7519 36.3024H18.5588L18.5589 38.7576H14.7519L14.7519 36.3024Z" fill="#FF8800"/>
<path d="M29.3452 36.127H33.1521V38.5822H29.3452V36.127Z" fill="#FF8800"/>
<path d="M20.9382 20.168H26.9658L26.9658 22.6232H20.9382L20.9382 20.168Z" fill="#FF8800"/>
</svg>
