<svg width="590" height="624" viewBox="0 0 590 624" fill="none" xmlns="http://www.w3.org/2000/svg">
<path d="M295 624C457.924 624 590 542.238 590 441.379C590 340.52 457.924 258.758 295 258.758C132.076 258.758 0 340.52 0 441.379C0 542.238 132.076 624 295 624Z" fill="#F5F5F5"/>
<path d="M447.121 531.445C486.634 531.445 518.666 511.614 518.666 487.15C518.666 462.687 486.634 442.855 447.121 442.855C407.609 442.855 375.577 462.687 375.577 487.15C375.577 511.614 407.609 531.445 447.121 531.445Z" fill="#E6E6E6"/>
<path d="M173.138 4.71067C161.233 -2.66952 144.793 -1.62926 126.621 9.61675C90.3184 32.1088 60.8721 86.7784 60.8853 131.748C60.8853 154.311 68.3058 170.125 80.2757 177.449C83.396 179.361 95.7855 187.037 98.932 188.991C110.823 196.357 127.264 195.302 145.422 184.07C181.725 161.578 211.171 106.909 211.171 61.9388C211.171 39.4468 203.803 23.7024 191.925 16.3362" fill="#F97800"/>
<path opacity="0.2" d="M60.8853 131.748C60.8853 154.311 68.3058 170.125 80.2757 177.449C83.396 179.361 95.7855 187.037 98.932 188.991C110.823 196.357 127.251 195.302 145.409 184.07L60.8853 131.748Z" fill="black"/>
<path opacity="0.1" d="M70.469 83.4467C64.3858 99.5566 60.8853 116.229 60.8853 131.748L145.409 184.07C157.942 176.311 169.65 164.713 179.614 151.007L70.469 83.4467Z" fill="black"/>
<path opacity="0.4" d="M179.627 151.007C198.533 125.001 211.171 91.3892 211.171 61.9388C211.171 39.4468 203.803 23.7024 191.925 16.3362L173.138 4.71067C161.233 -2.66952 144.793 -1.62926 126.622 9.61674C102.852 24.349 82.0457 52.8717 70.4691 83.4468L179.627 151.007Z" fill="white"/>
<path d="M145.409 21.2423C109.106 43.7343 79.6595 98.4039 79.6595 143.36C79.6595 188.316 109.106 206.619 145.422 184.127C181.738 161.635 211.197 106.965 211.171 61.995C211.145 17.025 181.686 -1.23566 145.409 21.2423Z" fill="#F97800"/>
<path d="M145.409 32.8117C114.258 52.0985 89.0336 99.0084 89.0336 137.568C89.0336 176.128 114.298 191.774 145.409 172.501C176.52 153.228 201.784 106.304 201.784 67.7305C201.784 29.1567 176.559 13.5248 145.409 32.8117Z" fill="#FAFAFA"/>
<path d="M145.409 44.3247C119.424 60.4768 98.3421 99.6129 98.3421 131.79C98.3421 163.968 119.411 177.013 145.409 160.918C171.407 144.822 192.463 105.7 192.463 73.5221C192.463 41.3445 171.407 28.2851 145.409 44.3247Z" fill="#F97800"/>
<path d="M145.409 55.9503C124.576 68.8551 107.703 100.217 107.703 125.999C107.703 151.78 124.589 162.253 145.422 149.348C166.255 136.444 183.128 105.095 183.128 79.2998C183.128 53.5043 166.242 43.0595 145.409 55.9503Z" fill="#FAFAFA"/>
<path d="M145.409 67.5196C129.676 77.2193 117.038 100.822 117.051 120.221C117.064 139.621 129.755 147.479 145.422 137.779C161.089 128.079 173.78 104.491 173.78 85.0915C173.78 65.6921 161.076 57.8199 145.409 67.5196Z" fill="#F97800"/>
<path d="M145.409 79.103C134.92 85.5976 126.385 101.426 126.385 114.43C126.385 127.433 134.907 132.704 145.422 126.21C155.937 119.715 164.445 103.886 164.445 90.8691C164.445 77.8519 155.923 72.5944 145.409 79.103Z" fill="#FAFAFA"/>
<path d="M145.409 90.7145C142.592 92.6858 140.248 95.3409 138.567 98.4647C136.886 101.588 135.915 105.093 135.733 108.694C135.733 115.301 140.073 117.986 145.422 114.683C148.237 112.71 150.58 110.054 152.261 106.931C153.941 103.807 154.913 100.304 155.098 96.703C155.098 90.0398 150.784 87.3548 145.409 90.7145Z" fill="#F97800"/>
<path d="M292.378 182.299L270.916 172.754L257.635 172.079V174.666L277.956 187.261L292.378 184.872V182.299Z" fill="#F97800"/>
<path d="M257.635 172.079L270.916 172.754L292.378 182.299L277.956 184.689L257.635 172.079Z" fill="#F97800"/>
<path opacity="0.2" d="M277.956 187.261V184.689L292.378 182.299V184.872L277.956 187.261Z" fill="black"/>
<path opacity="0.1" d="M277.956 184.689L257.635 172.079V174.666L277.956 187.261V184.689Z" fill="black"/>
<path d="M166.202 103.141L142.485 98.2493V103.141L147.756 119.462L155.701 111.309L166.202 108.047V103.141Z" fill="#37474F"/>
<path d="M142.485 98.2493L147.756 114.57L155.701 106.403L166.202 103.141L142.485 98.2493Z" fill="#455A64"/>
<path d="M147.756 114.57V119.462L155.701 111.309V106.403L147.756 114.57Z" fill="#263238"/>
<path d="M155.701 106.403L166.202 103.141V108.047L155.701 111.309V106.403Z" fill="#263238"/>
<path d="M157.117 106.403C156.869 106.26 156.589 106.194 156.308 106.214C156.028 106.234 155.758 106.338 155.53 106.515C154.891 106.971 154.359 107.581 153.979 108.296C153.599 109.011 153.38 109.812 153.341 110.634C153.31 110.933 153.355 111.236 153.47 111.51C153.585 111.784 153.767 112.021 153.996 112.194L288.196 195.373L291.25 189.525L157.117 106.403Z" fill="#455A64"/>
<path d="M153.826 108.61C153.526 109.238 153.36 109.929 153.341 110.634C153.31 110.933 153.355 111.236 153.47 111.51C153.585 111.784 153.767 112.021 153.996 112.194L288.196 195.373L289.572 192.758L153.826 108.61Z" fill="#37474F"/>
<path d="M289.756 189.693C289.112 190.142 288.576 190.748 288.194 191.461C287.811 192.175 287.591 192.976 287.553 193.798C287.553 195.33 288.537 195.949 289.756 195.204C290.398 194.751 290.93 194.142 291.311 193.426C291.691 192.71 291.909 191.908 291.945 191.085C291.906 189.567 290.923 188.934 289.756 189.693Z" fill="#263238"/>
<path d="M276.527 188.161V188.147V185.561L256.206 172.965V175.552L257.294 183.775L272.66 197.088L276.527 188.161Z" fill="#F97800"/>
<path opacity="0.2" d="M256.206 172.965L257.294 181.175V183.761L256.206 175.552V172.965Z" fill="black"/>
<path opacity="0.2" d="M276.527 185.56L272.66 194.487V197.074L276.527 188.147V185.56Z" fill="black"/>
<path opacity="0.1" d="M257.294 181.175L272.66 194.487V197.074L257.294 183.761V181.175Z" fill="black"/>
<path d="M62.1571 271.958L96.8475 250.478C98.5153 249.57 100.359 249.097 102.229 249.097C104.1 249.097 105.944 249.57 107.611 250.478L111.99 253.191C113.559 254.288 114.864 255.766 115.8 257.505C116.736 259.244 117.277 261.195 117.379 263.2V306.132C117.279 308.135 116.739 310.085 115.803 311.822C114.866 313.559 113.56 315.034 111.99 316.127L77.3653 337.606C75.6975 338.514 73.8536 338.987 71.9834 338.987C70.1131 338.987 68.2693 338.514 66.6015 337.606L62.1571 334.893C60.5914 333.798 59.2887 332.322 58.3547 330.585C57.4207 328.849 56.8818 326.9 56.7817 324.898V281.897C56.8889 279.904 57.4311 277.967 58.3648 276.24C59.2985 274.514 60.5975 273.047 62.1571 271.958Z" fill="#F97800"/>
<path d="M117.379 263.2C117.379 259.517 114.966 258.027 111.99 259.854L77.3652 281.334C75.7971 282.428 74.4918 283.904 73.5556 285.64C72.6193 287.377 72.0784 289.326 71.9768 291.329V334.275C71.9768 337.958 74.3891 339.448 77.3652 337.606L112.043 316.127C113.612 315.034 114.919 313.559 115.855 311.822C116.792 310.085 117.332 308.135 117.431 306.132L117.379 263.2Z" fill="#F97800"/>
<path opacity="0.1" d="M56.7817 324.898C56.8745 326.902 57.4103 328.853 58.345 330.591C59.2796 332.329 60.5862 333.804 62.1571 334.893L66.5491 337.606C68.0656 338.428 69.7272 338.895 71.4243 338.977C73.1214 339.059 74.8156 338.755 76.3951 338.084C73.8516 339.111 71.9244 337.578 71.9244 334.275V291.343C71.9903 289.333 72.5317 287.374 73.4977 285.65L58.355 276.274C57.3975 277.976 56.8563 279.91 56.7817 281.897V324.898Z" fill="black"/>
<path opacity="0.4" d="M117.313 262.216C116.907 259.278 114.691 258.21 111.99 259.882L77.3652 281.334C75.7669 282.395 74.4524 283.882 73.5501 285.65L58.355 276.273C59.2569 274.513 60.5663 273.032 62.157 271.972L96.8475 250.492C98.5152 249.584 100.359 249.111 102.229 249.111C104.1 249.111 105.943 249.584 107.611 250.492L111.99 253.219C113.424 254.226 114.64 255.55 115.558 257.101C116.476 258.653 117.074 260.396 117.313 262.216Z" fill="white"/>
<path d="M102.275 302.575C104.596 297.023 105.781 291.003 105.75 284.919C106.886 283.037 107.84 281.035 108.595 278.944C107.623 280.171 106.528 281.278 105.33 282.248C106.538 280.431 107.39 278.37 107.834 276.189C106.79 277.745 105.575 279.161 104.216 280.406C103.613 279.925 102.882 279.665 102.131 279.665C101.38 279.665 100.649 279.925 100.047 280.406C96.3756 282.684 93.6617 289.277 94.5008 293.859C89.7547 296.446 85.5594 295.813 82.7013 292.608C81.2067 297.205 81.9278 301.549 84.4712 302.449C83.6825 302.952 82.7587 303.155 81.8491 303.025C81.8491 306.849 83.6846 309.196 86.4247 308.297C85.7096 309.048 84.8569 309.632 83.9206 310.012C84.6547 312.823 86.7524 313.849 89.2565 312.373C87.313 316.086 84.3705 319.084 80.8134 320.976C82.3043 321.326 83.8457 321.351 85.3457 321.049C86.8457 320.747 88.2738 320.125 89.545 319.219C95.1825 315.733 99.5221 309.379 102.275 302.603" fill="white"/>
<path d="M241.811 271.958L276.501 250.478C278.169 249.57 280.013 249.097 281.883 249.097C283.753 249.097 285.597 249.57 287.265 250.478L291.644 253.191C293.212 254.288 294.517 255.766 295.453 257.505C296.39 259.244 296.931 261.195 297.032 263.2V306.132C296.933 308.135 296.393 310.085 295.456 311.822C294.52 313.559 293.213 315.034 291.644 316.127L256.979 337.606C255.312 338.514 253.468 338.987 251.598 338.987C249.727 338.987 247.883 338.514 246.216 337.606L241.824 334.893C240.258 333.798 238.955 332.322 238.021 330.585C237.087 328.849 236.548 326.9 236.448 324.898V281.897C236.554 279.905 237.094 277.969 238.026 276.243C238.957 274.516 240.253 273.049 241.811 271.958Z" fill="#F97800"/>
<path d="M297.032 263.2C297.032 259.517 294.62 258.027 291.644 259.868L256.979 281.334C255.411 282.428 254.106 283.904 253.17 285.64C252.234 287.377 251.693 289.326 251.591 291.329V334.275C251.591 337.958 254.003 339.448 256.979 337.606L291.657 316.141C293.225 315.043 294.53 313.566 295.467 311.827C296.403 310.088 296.944 308.137 297.045 306.132L297.032 263.2Z" fill="#F97800"/>
<path opacity="0.4" d="M296.967 262.216C296.56 259.278 294.344 258.21 291.644 259.882L256.979 281.334C255.381 282.395 254.067 283.882 253.164 285.65L238.008 276.273C238.91 274.513 240.22 273.032 241.811 271.972L276.501 250.492C278.169 249.584 280.013 249.111 281.883 249.111C283.753 249.111 285.597 249.584 287.265 250.492L291.644 253.219C293.077 254.226 294.293 255.55 295.211 257.101C296.129 258.653 296.728 260.396 296.967 262.216Z" fill="white"/>
<path opacity="0.1" d="M236.435 324.898C236.535 326.9 237.074 328.849 238.008 330.585C238.942 332.322 240.245 333.798 241.811 334.893L246.203 337.606C247.721 338.422 249.383 338.885 251.079 338.965C252.776 339.044 254.469 338.74 256.049 338.07C253.505 339.097 251.578 337.564 251.578 334.275V291.329C251.644 289.319 252.185 287.36 253.151 285.636L238.009 276.274C237.053 277.977 236.512 279.911 236.435 281.897V324.898Z" fill="black"/>
<path fill-rule="evenodd" clip-rule="evenodd" d="M286.15 300.987C285.896 300.922 285.631 300.922 285.377 300.987C284.731 301.014 284.09 300.854 283.522 300.522C282.954 300.19 282.48 299.7 282.152 299.103C281.656 298.346 281.283 297.505 281.05 296.615C280.93 296.155 280.93 295.669 281.05 295.209C281.305 294.526 281.679 293.901 282.152 293.367C282.74 292.707 283.243 291.965 283.646 291.16C283.744 290.975 283.819 290.776 283.869 290.57V290.373C283.909 290.169 283.909 289.959 283.869 289.755C283.827 289.631 283.758 289.519 283.666 289.431C283.575 289.343 283.464 289.28 283.345 289.249C283.069 289.136 282.742 289.333 282.453 289.67C282.203 289.978 281.936 290.269 281.653 290.542C281.405 290.805 281.091 290.986 280.749 291.062C280.74 290.954 280.74 290.846 280.749 290.739C280.749 289.853 280.749 288.897 280.749 287.927C280.802 286.451 280.775 284.972 280.67 283.499C280.635 282.561 280.384 281.647 279.94 280.838C279.497 280.029 278.874 279.35 278.127 278.86C277.636 278.623 277.101 278.509 276.563 278.526C276.024 278.543 275.497 278.691 275.019 278.959C274.636 279.139 274.264 279.346 273.905 279.577C272.117 280.766 270.652 282.438 269.657 284.427C268.728 286.235 268.032 288.169 267.586 290.176C267.243 292.027 267.128 293.917 267.245 295.799C267.245 297.022 267.363 298.161 267.245 299.356C267.252 299.384 267.252 299.413 267.245 299.44C266.938 299.725 266.575 299.931 266.183 300.045C265.912 300.115 265.635 300.162 265.357 300.185C265.006 300.327 264.719 300.609 264.557 300.973C264.286 301.386 264.132 301.874 264.112 302.378V302.477C264.117 302.585 264.143 302.69 264.188 302.787C264.233 302.884 264.296 302.97 264.374 303.039C264.492 303.123 264.597 303.166 264.662 303.208C265.206 303.384 265.777 303.436 266.34 303.362C266.523 303.37 266.698 303.446 266.834 303.577C266.971 303.707 267.06 303.885 267.088 304.079C267.127 304.861 267.024 305.644 266.786 306.385C266.25 308.644 265.42 310.811 264.321 312.823C263.803 313.76 263.177 314.624 262.46 315.396C262.157 315.68 261.927 316.043 261.791 316.45C261.784 316.496 261.784 316.544 261.791 316.59C261.754 316.722 261.744 316.861 261.762 316.997C261.78 317.133 261.826 317.263 261.896 317.378C261.962 317.478 262.06 317.548 262.171 317.575C262.742 317.694 263.331 317.665 263.889 317.49C264.234 317.357 264.597 317.281 264.964 317.265C264.964 317.265 264.964 317.434 265.082 317.673C265.2 317.912 265.226 318.685 265.344 319.233C265.344 319.388 265.462 319.472 265.567 319.444C265.732 319.389 265.879 319.281 265.986 319.135C266.755 318.309 267.687 317.68 268.713 317.293C269.607 317.29 270.488 317.532 271.27 317.996C271.588 318.166 271.938 318.254 272.292 318.254C272.647 318.254 272.997 318.166 273.315 317.996C273.914 317.656 274.492 317.276 275.046 316.858C275.565 316.403 276.009 315.856 276.357 315.241C277.275 313.835 278.1 312.247 278.979 311.024C279.297 310.686 279.654 310.393 280.041 310.152C280.744 309.673 281.491 309.273 282.27 308.957H282.348C282.458 308.847 282.543 308.713 282.597 308.564C282.64 308.466 282.667 308.362 282.676 308.254C282.676 308.114 282.676 308.044 282.676 308.17C282.682 308.128 282.682 308.085 282.676 308.044C282.75 307.335 282.895 306.638 283.109 305.963C283.211 305.745 283.371 305.565 283.568 305.443C284.209 304.863 284.801 304.223 285.337 303.531C285.645 303.168 285.889 302.749 286.059 302.294C286.242 301.774 286.15 301.282 285.901 301.183L286.15 300.987Z" fill="white"/>
<path d="M241.811 400.162L276.501 378.696C278.169 377.789 280.013 377.316 281.883 377.316C283.753 377.316 285.597 377.789 287.265 378.696L291.644 381.41C293.212 382.504 294.517 383.979 295.453 385.716C296.39 387.452 296.931 389.401 297.032 391.404V434.35C296.93 436.353 296.388 438.302 295.452 440.038C294.516 441.775 293.211 443.25 291.644 444.345L256.979 465.811C255.312 466.718 253.468 467.191 251.598 467.191C249.727 467.191 247.883 466.718 246.216 465.811L241.824 463.098C240.257 462.003 238.954 460.527 238.02 458.79C237.086 457.054 236.547 455.105 236.448 453.103V410.157C236.546 408.156 237.082 406.209 238.014 404.472C238.946 402.735 240.247 401.259 241.811 400.162Z" fill="#F97800"/>
<path d="M297.032 391.404C297.032 387.721 294.62 386.231 291.644 388.073L256.979 409.539C255.412 410.634 254.107 412.109 253.171 413.846C252.235 415.582 251.694 417.531 251.591 419.534V462.479C251.591 466.162 254.003 467.652 256.979 465.811L291.657 444.345C293.225 443.251 294.53 441.776 295.467 440.039C296.403 438.302 296.944 436.353 297.045 434.35L297.032 391.404Z" fill="#F97800"/>
<path d="M270.627 442.714C271.405 441.955 272.065 441.068 272.581 440.086C273.852 437.633 274.533 434.879 274.561 432.073C274.629 430.782 274.399 429.493 273.892 428.319C273.716 427.918 273.432 427.583 273.077 427.355C272.722 427.127 272.312 427.017 271.899 427.04C272.424 426.282 272.864 425.462 273.21 424.594C273.759 423.105 274.03 421.514 274.01 419.913C274.083 418.574 273.806 417.241 273.21 416.061C272.332 414.656 270.85 414.543 268.74 415.794L260.414 420.953V449.42L268.176 444.612C269.051 444.071 269.873 443.435 270.627 442.714ZM263.862 423.765L267.612 421.445C268.225 421.017 268.919 420.738 269.644 420.63C270.273 420.63 270.575 421.361 270.575 422.682C270.614 423.713 270.372 424.734 269.88 425.62C269.414 426.374 268.79 427 268.058 427.448L263.862 430.049V423.765ZM263.862 442.349V434.758L268.11 432.129C268.615 431.752 269.213 431.547 269.828 431.539C270.562 431.651 270.929 432.438 270.929 433.914C270.987 435.416 270.587 436.897 269.788 438.132C269.317 438.782 268.723 439.319 268.045 439.706L263.862 442.349Z" fill="white"/>
<path d="M277.484 436.979C278.166 437.43 278.958 437.654 279.759 437.622C280.56 437.589 281.333 437.302 281.981 436.796C284.144 435.385 285.826 433.266 286.78 430.751C287.43 429.315 287.846 427.77 288.012 426.183L284.603 428.291C284.441 428.94 284.213 429.567 283.922 430.161C283.506 431.039 282.865 431.771 282.073 432.27C281.813 432.475 281.512 432.614 281.194 432.674C280.875 432.735 280.548 432.717 280.238 432.621C279.364 432.284 278.927 431.075 278.927 428.994L288.209 423.245C288.24 421.875 288.205 420.505 288.104 419.14C288.016 417.834 287.668 416.563 287.081 415.415C286.875 414.954 286.566 414.554 286.182 414.25C285.798 413.946 285.351 413.747 284.879 413.672C283.821 413.607 282.772 413.913 281.89 414.543C279.849 415.899 278.254 417.904 277.327 420.279C276.093 423.258 275.493 426.494 275.57 429.753C275.553 433.652 276.191 436.061 277.484 436.979ZM279.871 421.516C280.273 420.496 280.972 419.643 281.863 419.084C282.143 418.848 282.484 418.712 282.838 418.694C283.193 418.677 283.545 418.778 283.843 418.985C284.167 419.36 284.413 419.805 284.565 420.29C284.716 420.774 284.77 421.288 284.721 421.797L278.979 425.283C279.073 423.982 279.374 422.708 279.871 421.516Z" fill="white"/>
<path d="M285.39 407.135L277.891 411.774V414.642L285.39 410.003V407.135Z" fill="white"/>
<path opacity="0.4" d="M296.967 390.406C296.56 387.468 294.345 386.414 291.644 388.073L256.979 409.539C255.381 410.599 254.067 412.086 253.164 413.854L238.022 404.464C238.927 402.706 240.236 401.226 241.824 400.162L276.514 378.682C278.184 377.781 280.027 377.312 281.896 377.312C283.765 377.312 285.608 377.781 287.278 378.682L291.657 381.41C293.088 382.418 294.302 383.742 295.217 385.293C296.133 386.845 296.729 388.588 296.967 390.406Z" fill="white"/>
<path opacity="0.1" d="M236.435 453.103C236.534 455.105 237.073 457.054 238.007 458.791C238.941 460.527 240.244 462.003 241.811 463.098L246.203 465.811C247.72 466.63 249.382 467.094 251.079 467.174C252.776 467.254 254.47 466.948 256.049 466.275C253.505 467.301 251.578 465.769 251.578 462.479V419.534C251.651 417.547 252.192 415.612 253.151 413.911L238.009 404.52C237.042 406.244 236.501 408.203 236.435 410.214V453.103Z" fill="black"/>
<path d="M206.032 430.217C205.93 428.216 205.39 426.269 204.456 424.532C203.522 422.796 202.221 421.32 200.657 420.222L196.265 417.509C194.597 416.602 192.753 416.129 190.883 416.129C189.012 416.129 187.169 416.602 185.501 417.509L150.784 438.975C149.216 440.072 147.911 441.55 146.974 443.289C146.038 445.028 145.497 446.979 145.396 448.984V491.916C145.497 493.921 146.038 495.872 146.974 497.611C147.911 499.35 149.216 500.827 150.784 501.925L155.163 504.638C156.833 505.539 158.676 506.008 160.545 506.008C162.414 506.008 164.257 505.539 165.927 504.638L200.604 483.158C202.168 482.061 203.47 480.584 204.404 478.848C205.337 477.112 205.877 475.164 205.979 473.163L206.032 430.217Z" fill="#F97800"/>
<path opacity="0.55" d="M145.435 491.93C145.537 493.933 146.078 495.882 147.014 497.619C147.95 499.355 149.255 500.831 150.823 501.925L155.202 504.638C156.719 505.46 158.381 505.927 160.079 506.007C161.776 506.087 163.471 505.778 165.048 505.102C162.518 506.128 160.591 504.596 160.591 501.306V458.36C160.663 456.372 161.209 454.436 162.177 452.737L147.021 443.347C146.055 445.071 145.514 447.03 145.448 449.04L145.435 491.93Z" fill="black"/>
<path opacity="0.45" d="M206.032 430.189C206.032 426.506 203.62 425.016 200.657 426.858L165.966 448.323C164.399 449.421 163.096 450.9 162.162 452.639C161.228 454.378 160.69 456.328 160.591 458.332V501.264C160.591 505.017 162.99 506.465 165.966 504.638L200.604 483.13C202.171 482.035 203.474 480.559 204.408 478.822C205.342 477.086 205.88 475.137 205.979 473.135L206.032 430.189Z" fill="black"/>
<path opacity="0.35" d="M205.966 429.219C205.56 426.295 203.344 425.227 200.644 426.886L165.979 448.351C164.381 449.412 163.066 450.899 162.164 452.667L147.021 443.291C147.92 441.528 149.23 440.045 150.824 438.989L185.501 417.509C187.171 416.602 189.017 416.129 190.889 416.129C192.762 416.129 194.608 416.602 196.278 417.509L200.604 420.222C202.044 421.226 203.268 422.547 204.193 424.099C205.118 425.651 205.722 427.396 205.966 429.219Z" fill="black"/>
<path d="M175.852 473.894C176.179 473.894 176.481 473.514 176.573 472.84C176.638 472.376 176.795 471.209 176.874 470.731C176.953 470.253 176.874 469.874 176.664 469.522C175.917 468.306 175.58 466.853 175.707 465.403C175.707 459.33 178.447 452.175 182.866 449.448C186.799 447.03 188.923 449.645 188.923 454.916C188.923 461.847 187.074 468.833 184.308 470.548C182.787 471.49 181.686 470.113 182.013 467.343C182.446 464.026 183.325 460.216 183.325 458.009C183.325 456.041 182.682 454.804 181.358 455.619C179.798 456.589 178.552 460.019 178.552 463.576C178.516 464.772 178.676 465.967 179.024 467.104C179.024 467.104 177.425 479.236 177.149 481.359C176.828 484.404 176.828 487.479 177.149 490.524C177.149 490.791 177.399 490.721 177.503 490.44C178.654 487.372 179.532 484.195 180.126 480.951C180.309 479.77 181.148 473.711 181.148 473.711C181.659 474.99 183.141 475.468 184.714 474.498C189.395 471.603 192.581 462.592 192.581 453.159C192.581 446.032 188.923 441.66 183.403 445.104C176.481 449.321 172.993 459.724 172.993 466.556C172.862 470.689 173.806 473.782 175.852 473.894Z" fill="white"/>
<path d="M62.1571 400.162L96.8475 378.696C98.5153 377.789 100.359 377.316 102.229 377.316C104.1 377.316 105.944 377.789 107.611 378.696L111.99 381.41C113.558 382.504 114.864 383.979 115.8 385.716C116.736 387.452 117.277 389.401 117.379 391.404V434.35C117.276 436.353 116.735 438.302 115.798 440.038C114.862 441.775 113.558 443.25 111.99 444.345L77.3653 465.811C75.6975 466.718 73.8536 467.191 71.9834 467.191C70.1131 467.191 68.2693 466.718 66.6015 465.811L62.1571 463.098C60.5906 462.003 59.2874 460.527 58.3533 458.79C57.4193 457.054 56.8808 455.105 56.7817 453.103V410.157C56.8808 408.155 57.4193 406.206 58.3533 404.47C59.2874 402.733 60.5906 401.257 62.1571 400.162Z" fill="#F97800"/>
<path opacity="0.1" d="M56.7817 453.103C56.8808 455.107 57.4192 457.058 58.3532 458.797C59.2871 460.536 60.5904 462.014 62.1571 463.112L66.5491 465.825C68.0675 466.64 69.7293 467.103 71.4259 467.183C73.1225 467.263 74.8158 466.958 76.3951 466.289C73.8516 467.315 71.9244 465.783 71.9244 462.493V419.548C71.9903 417.538 72.5317 415.578 73.4977 413.854L58.355 404.478C57.389 406.202 56.8476 408.161 56.7817 410.171V453.103Z" fill="black"/>
<path d="M117.379 391.419C117.379 387.736 114.966 386.245 111.99 388.087L77.3652 409.553C75.7978 410.648 74.4931 412.123 73.5569 413.86C72.6207 415.596 72.0794 417.545 71.9768 419.548V462.493C71.9768 466.176 74.3891 467.666 77.3652 465.825L112.043 444.359C113.61 443.264 114.915 441.789 115.851 440.052C116.787 438.316 117.328 436.367 117.431 434.364L117.379 391.419Z" fill="#F97800"/>
<path opacity="0.4" d="M117.313 390.406C116.907 387.468 114.691 386.414 111.99 388.073L77.3652 409.539C75.7669 410.599 74.4524 412.086 73.5501 413.854L58.355 404.464C59.2602 402.706 60.5689 401.226 62.157 400.162L96.8475 378.682C98.5171 377.781 100.36 377.312 102.229 377.312C104.098 377.312 105.942 377.781 107.611 378.682L111.99 381.41C113.424 382.416 114.64 383.74 115.558 385.292C116.476 386.843 117.074 388.587 117.313 390.406Z" fill="white"/>
<path d="M94.658 411.366C98.1978 409.159 98.5911 408.92 100.02 408.147C100.776 407.665 101.622 407.367 102.498 407.275C102.768 407.243 103.042 407.269 103.303 407.351C103.564 407.433 103.807 407.57 104.019 407.753C104.502 408.142 104.853 408.69 105.015 409.314C105.323 410.364 105.478 411.46 105.474 412.561C105.474 414.529 105.553 415.12 105.553 420.194C105.553 425.269 105.553 425.817 105.474 427.926C105.45 429.21 105.296 430.487 105.015 431.736C104.802 432.716 104.467 433.662 104.019 434.547C103.617 435.411 103.105 436.21 102.498 436.923C101.768 437.766 100.935 438.5 100.02 439.102C98.6173 440.058 98.1978 440.339 94.658 442.532C91.1181 444.725 90.7248 444.978 89.2826 445.751C88.5301 446.231 87.6889 446.528 86.8179 446.622C86.5454 446.655 86.2697 446.629 86.0065 446.547C85.7433 446.465 85.4978 446.328 85.2839 446.144C84.8112 445.745 84.4635 445.201 84.2875 444.584C83.9794 443.533 83.8246 442.438 83.8287 441.337C83.7631 439.369 83.75 438.778 83.75 433.704C83.75 428.629 83.75 428.081 83.8287 425.972C83.8526 424.688 84.0064 423.411 84.2875 422.162C84.5128 421.186 84.8473 420.242 85.2839 419.351C85.6859 418.484 86.2025 417.684 86.8179 416.975C87.539 416.127 88.3689 415.394 89.2826 414.796C90.6855 413.84 91.105 413.559 94.658 411.366ZM94.658 407.936C91.0395 410.171 90.5937 410.481 89.1778 411.451C86.7862 413.025 84.8519 415.284 83.5927 417.973C82.9145 419.337 82.3991 420.787 82.0587 422.289C81.6845 423.923 81.4779 425.597 81.4426 427.279C81.4426 429.346 81.3639 430.006 81.3639 435.166C81.3639 440.325 81.3639 440.971 81.4426 442.953C81.4449 444.385 81.6527 445.807 82.0587 447.171C82.3243 448.127 82.8603 448.972 83.5927 449.589C84.2584 450.146 85.0987 450.408 85.9395 450.32C87.0785 450.194 88.1787 449.805 89.1647 449.181C90.5806 448.394 91.0263 448.141 94.6449 445.905C98.2634 443.67 98.696 443.361 100.125 442.391C102.501 440.801 104.428 438.546 105.697 435.868C106.375 434.505 106.891 433.055 107.231 431.553C107.605 429.914 107.812 428.235 107.847 426.548C107.847 424.482 107.926 423.835 107.926 418.676C107.926 413.517 107.926 412.87 107.847 410.888C107.845 409.457 107.637 408.035 107.231 406.671C106.969 405.712 106.433 404.866 105.697 404.253C105.031 403.695 104.191 403.434 103.35 403.522C102.211 403.629 101.109 404.008 100.125 404.633C98.696 405.42 98.2502 405.673 94.6449 407.908" fill="white"/>
<path d="M94.658 417.186C90.8821 419.52 87.8274 425.775 87.8274 431.173C87.8274 436.571 90.8821 439.031 94.658 436.698C98.4338 434.364 101.475 428.109 101.475 422.711C101.475 417.313 98.4207 414.852 94.658 417.186ZM94.658 433.282C92.2063 434.786 90.2266 433.183 90.2266 429.683C90.2509 427.903 90.6645 426.154 91.4341 424.577C92.2038 423 93.308 421.638 94.658 420.602C97.0965 419.098 99.0893 420.7 99.0893 424.201C99.062 425.98 98.6471 427.728 97.8777 429.305C97.1082 430.881 96.0057 432.243 94.658 433.282Z" fill="white"/>
<path d="M103.337 411.422C103.328 412.061 103.179 412.688 102.904 413.254C102.628 413.82 102.234 414.31 101.751 414.684C100.872 415.232 100.151 414.684 100.151 413.39C100.159 412.75 100.308 412.121 100.586 411.554C100.864 410.987 101.263 410.499 101.751 410.129C102.629 409.581 103.337 410.129 103.337 411.422Z" fill="white"/>
<path d="M206.032 302.083C205.931 300.08 205.391 298.13 204.458 296.391C203.524 294.652 202.222 293.174 200.657 292.074L196.265 289.361C194.597 288.453 192.753 287.98 190.883 287.98C189.012 287.98 187.169 288.453 185.501 289.361L150.784 310.841C149.216 311.935 147.911 313.41 146.974 315.147C146.038 316.884 145.497 318.833 145.396 320.836V363.782C145.497 365.785 146.038 367.734 146.974 369.47C147.911 371.207 149.216 372.682 150.784 373.776L155.163 376.49C156.831 377.397 158.675 377.87 160.545 377.87C162.415 377.87 164.259 377.397 165.927 376.49L200.604 354.996C202.169 353.896 203.471 352.417 204.405 350.679C205.339 348.94 205.878 346.99 205.979 344.987L206.032 302.083Z" fill="#F97800"/>
<path opacity="0.55" d="M145.435 363.782C145.537 365.786 146.077 367.738 147.014 369.476C147.95 371.215 149.255 372.693 150.823 373.79L155.202 376.504C156.721 377.319 158.383 377.782 160.079 377.862C161.776 377.942 163.469 377.637 165.048 376.967C162.518 377.994 160.591 376.461 160.591 373.172V330.226C160.655 328.214 161.202 326.253 162.177 324.533L147.021 315.157C146.066 316.86 145.525 318.794 145.448 320.78L145.435 363.782Z" fill="black"/>
<path opacity="0.45" d="M206.032 302.083C206.032 298.4 203.62 296.91 200.657 298.752L165.966 320.217C164.4 321.312 163.096 322.788 162.162 324.525C161.228 326.262 160.69 328.21 160.591 330.212V373.158C160.591 376.841 162.99 378.331 165.966 376.49L200.604 354.996C202.171 353.898 203.474 352.419 204.408 350.68C205.342 348.941 205.88 346.991 205.979 344.987L206.032 302.083Z" fill="black"/>
<path d="M179.693 361.336L185.475 357.751V337.03L189.513 334.542L189.945 327.33L185.475 330.142V326.192C185.475 324.561 185.711 323.774 186.786 323.085L189.919 321.145V313.948L185.907 316.422C183.935 317.548 182.301 319.252 181.196 321.335C180.091 323.418 179.561 325.794 179.667 328.188V333.727L176.651 335.582V342.611L179.667 340.741L179.693 361.336Z" fill="white"/>
<path opacity="0.35" d="M205.966 301.085C205.56 298.147 203.344 297.079 200.644 298.752L165.979 320.217C164.378 321.274 163.062 322.762 162.164 324.533L147.021 315.143C147.92 313.379 149.23 311.897 150.824 310.841L185.501 289.361C187.171 288.453 189.017 287.98 190.889 287.98C192.762 287.98 194.608 288.453 196.278 289.361L200.644 292.088C202.079 293.093 203.296 294.416 204.215 295.968C205.133 297.52 205.73 299.265 205.966 301.085Z" fill="black"/>
<path d="M454.385 189.961C462.749 190.368 466.735 191.76 471.114 197.284C475.493 202.809 497.335 236.786 497.335 236.786C497.335 236.786 493.467 248.426 484.998 247.428L468.374 225.863L454.385 189.961Z" fill="#FFA8A7"/>
<path d="M453.27 189.975C453.27 189.975 459.275 189.131 463.562 190.79C467.849 192.449 471.192 196.314 473.71 199.885C476.227 203.456 481.576 211.497 481.576 211.497C481.576 211.497 477.577 220.493 466.669 227.269L453.27 189.975Z" fill="#E0E0E0"/>
<path d="M443.306 180.191H440.409C433.314 180.191 426.51 177.17 421.492 171.792C416.474 166.414 413.654 159.12 413.65 151.513C413.65 144.15 416.378 137.088 421.234 131.881C426.09 126.675 432.676 123.75 439.544 123.75H444.158C451.026 123.75 457.612 126.675 462.468 131.881C467.324 137.088 470.052 144.15 470.052 151.513C470.048 159.118 467.229 166.41 462.214 171.787C457.199 177.164 450.399 180.187 443.306 180.191Z" fill="#263238"/>
<path d="M415.42 211.412C420.025 211.409 424.44 209.444 427.695 205.952C430.95 202.459 432.778 197.724 432.778 192.786V174.174C428.175 174.174 423.76 176.135 420.504 179.625C417.249 183.116 415.42 187.85 415.42 192.786V211.412Z" fill="#263238"/>
<path d="M424.611 481.513V479.573C425.332 481.851 428.649 491.663 433.67 496.583C437.669 500.491 443.123 505.017 444.512 509.375C445.902 513.733 436.921 515.42 433.185 514.717C428.845 513.888 423.234 511.259 420.179 507.224C418.029 504.413 416.666 501.039 415.119 498.79C413.572 496.541 410.058 494.067 409.219 491.494C408.773 490.088 409.311 486.982 409.953 484.367C410.596 481.752 411.172 479.32 411.933 479.545C411.933 479.84 411.933 481.021 411.933 481.021C413.741 482.542 415.981 483.351 418.278 483.313C420.127 483.411 424.624 483.017 424.611 481.513Z" fill="#263238"/>
<path d="M437.289 500.013C436.056 498.818 434.811 497.665 433.67 496.555C430.156 493.125 427.482 487.291 425.948 483.313C425.076 481.043 424.63 478.612 424.637 476.157V468.412H411.959V481.063V481.401H412.025C412.641 484.212 418.462 491.733 421.766 496.625C423.981 499.914 428.19 504.09 433.211 504.806C437.905 505.495 440.396 503.879 437.289 500.013Z" fill="#FFA8A7"/>
<path d="M469.37 468.102V466.162C470.091 468.44 473.408 478.252 478.429 483.172C482.428 487.08 487.882 491.606 489.272 495.95C490.662 500.294 481.681 502.009 477.944 501.306C473.605 500.477 467.993 497.834 464.939 493.813C462.789 491.002 461.412 487.628 459.878 485.379C458.344 483.13 454.804 480.656 453.978 478.083C453.519 476.677 454.07 473.571 454.699 470.942C455.289 468.538 455.932 465.909 456.692 466.134V467.61C458.499 469.133 460.74 469.942 463.038 469.902C464.873 470.014 469.37 469.62 469.37 468.102Z" fill="#263238"/>
<path d="M482.035 486.616C480.802 485.421 479.557 484.268 478.416 483.158C474.903 479.714 472.228 473.894 470.694 469.916C469.823 467.646 469.378 465.215 469.383 462.76V455.015H456.705V467.666V468.004H456.771C457.387 470.815 463.195 478.336 466.499 483.228C468.714 486.518 472.936 490.693 477.957 491.41C482.703 492.098 485.103 490.482 482.035 486.616Z" fill="#FFA8A7"/>
<path d="M414.463 270.271C404.63 293.283 414.817 374.297 414.817 374.297C414.516 378.036 410.543 385.388 409.048 401.821C407.305 421.235 411.802 470 411.802 470C413.734 471.203 415.91 471.882 418.143 471.978C420.375 472.073 422.595 471.583 424.611 470.548C424.611 470.548 436.699 397.112 438.967 377.769C440.946 360.9 444.762 323.858 444.762 323.858L450.871 377.67C449.287 383.117 448.142 388.7 447.449 394.357C446.413 405.715 456.627 458.599 456.627 458.599C456.627 458.599 461.005 460.314 469.304 459.007C469.304 459.007 472.936 388.818 473.893 375.14C475.506 352.156 474.509 280.463 470.576 266.897L414.463 270.271Z" fill="#F97800"/>
<path opacity="0.7" d="M414.463 270.271C404.63 293.283 414.817 374.297 414.817 374.297C414.516 378.036 410.543 385.388 409.048 401.821C407.305 421.235 411.802 470 411.802 470C413.734 471.203 415.91 471.882 418.143 471.978C420.375 472.073 422.595 471.583 424.611 470.548C424.611 470.548 436.699 397.112 438.967 377.769C440.946 360.9 444.762 323.858 444.762 323.858L450.871 377.67C449.287 383.117 448.142 388.7 447.449 394.357C446.413 405.715 456.627 458.599 456.627 458.599C456.627 458.599 461.005 460.314 469.304 459.007C469.304 459.007 472.936 388.818 473.893 375.14C475.506 352.156 474.509 280.463 470.576 266.897L414.463 270.271Z" fill="black"/>
<path opacity="0.3" d="M444.762 323.943L447.947 302.575C447.947 302.575 461.438 299.567 467.613 293.396C467.613 293.396 461.189 301.971 451.658 304.768L448.026 321.258L450.465 374.198L444.762 323.943Z" fill="black"/>
<path d="M431.795 190.312C428.059 190.593 426.813 190.495 424.099 190.79C418.685 191.394 417.374 199.885 415.158 204.847C412.85 210.348 412.639 216.599 414.568 222.265L423.339 249.564C423.339 249.564 419.235 260.22 414.463 270.285C436.489 283.471 464.008 276.541 470.629 266.911C470.904 264.873 469.213 248.918 468.164 238.501C472.097 228.056 473.067 221.449 471.428 214.603C468.387 201.797 457.505 190.017 454.385 190.031L431.795 190.312Z" fill="#EBEBEB"/>
<path d="M413.073 133.449L416.889 140.028C416.498 140.317 416.058 140.517 415.593 140.619C415.129 140.72 414.65 140.719 414.186 140.617C413.722 140.514 413.282 140.312 412.892 140.022C412.503 139.733 412.172 139.362 411.92 138.932C411.419 138.034 411.26 136.964 411.475 135.943C411.689 134.923 412.262 134.03 413.073 133.449Z" fill="#263238"/>
<path d="M408.891 140.942L416.05 139.874C416.138 140.373 416.13 140.887 416.028 141.383C415.926 141.88 415.732 142.349 415.456 142.763C415.181 143.177 414.83 143.526 414.425 143.791C414.02 144.055 413.569 144.229 413.1 144.302C412.13 144.425 411.154 144.146 410.371 143.521C409.588 142.896 409.059 141.973 408.891 140.942Z" fill="#263238"/>
<path d="M460.402 135.98C463.378 137.863 467.049 145.89 466.695 162.689C466.381 176.957 462.067 180.486 459.904 181.498C457.741 182.51 453.559 181.906 449.494 181.175V189.989C449.494 189.989 455.106 196.722 454.739 200.658C454.372 204.594 446.623 205.508 441.379 201.67C437.973 199.043 435.048 195.765 432.752 191.999V171.334C432.752 171.334 430.012 175.27 425.528 172.065C421.045 168.86 420.861 161.002 423.483 158.191C426.105 155.379 431.808 156.166 432.857 160.088C432.857 160.088 439.504 154.789 439.504 141.673C439.53 136.162 453.31 135.516 460.402 135.98Z" fill="#FFA8A7"/>
<path d="M448.8 158.57C448.817 158.811 448.79 159.052 448.72 159.282C448.649 159.511 448.537 159.722 448.389 159.904C448.242 160.086 448.061 160.235 447.86 160.341C447.658 160.448 447.438 160.51 447.213 160.524C446.762 160.535 446.325 160.356 445.996 160.025C445.667 159.693 445.474 159.236 445.456 158.753C445.437 158.508 445.464 158.261 445.536 158.028C445.608 157.794 445.723 157.579 445.875 157.395C446.027 157.211 446.213 157.062 446.42 156.957C446.628 156.852 446.853 156.793 447.082 156.785C447.529 156.785 447.958 156.971 448.278 157.304C448.599 157.637 448.786 158.091 448.8 158.57Z" fill="#263238"/>
<path d="M450.805 171.419L455.355 172.979C455.272 173.305 455.129 173.611 454.934 173.876C454.739 174.142 454.495 174.363 454.219 174.526C453.942 174.689 453.638 174.79 453.324 174.824C453.01 174.857 452.693 174.823 452.392 174.722C451.779 174.5 451.271 174.031 450.975 173.415C450.679 172.798 450.618 172.082 450.805 171.419Z" fill="#F28F8F"/>
<path d="M446.938 152.061L443.149 153.636C443.043 153.375 442.987 153.093 442.985 152.808C442.984 152.523 443.036 152.24 443.139 151.978C443.242 151.715 443.393 151.477 443.584 151.279C443.775 151.081 444.002 150.926 444.25 150.824C444.761 150.632 445.321 150.653 445.819 150.882C446.316 151.111 446.716 151.532 446.938 152.061Z" fill="#263238"/>
<path d="M462.815 158.767C462.817 159.12 462.722 159.465 462.543 159.761C462.363 160.057 462.107 160.289 461.805 160.43C461.503 160.57 461.169 160.612 460.845 160.551C460.521 160.49 460.221 160.328 459.982 160.085C459.744 159.842 459.576 159.53 459.502 159.186C459.428 158.842 459.449 158.483 459.564 158.152C459.678 157.821 459.881 157.534 460.147 157.326C460.412 157.118 460.729 156.998 461.058 156.982C461.51 156.974 461.948 157.156 462.276 157.49C462.604 157.824 462.798 158.282 462.815 158.767Z" fill="#263238"/>
<path d="M455.001 157.783L455.263 168.579L460.56 166.822L455.001 157.783Z" fill="#F28F8F"/>
<path d="M449.494 181.217C445.22 180.612 436.384 177.899 435.073 174.188C435.616 176.08 436.692 177.745 438.154 178.953C440.776 181.357 449.521 184.084 449.521 184.084L449.494 181.217Z" fill="#F28F8F"/>
<path d="M437.433 272.829C435.706 272.403 434.077 271.611 432.639 270.501C431.202 269.39 429.986 267.984 429.061 266.363C428.137 264.742 427.524 262.94 427.257 261.062C426.99 259.185 427.076 257.268 427.508 255.426C427.574 255.178 427.653 254.934 427.744 254.695C428.047 253.706 428.651 252.855 429.46 252.279C430.268 251.703 431.234 251.435 432.202 251.518C430.788 250.513 429.575 249.218 428.63 247.707C427.685 246.197 427.027 244.502 426.695 242.718C426.695 242.718 423.116 224.12 423.614 227.255C424.112 230.39 422.303 218.708 424.532 212.101L415.84 206.366L414.201 207.589C412.866 212.412 412.994 217.566 414.568 222.307L423.339 249.564C419.91 256.228 416.944 263.154 414.463 270.285C430.694 279.999 449.862 278.79 461.543 273.631C453.531 274.996 445.351 274.724 437.433 272.829Z" fill="#E0E0E0"/>
<path d="M424.099 190.79C417.924 190.902 414.922 192.716 406.702 202.373C401.589 208.432 379.248 233.75 379.248 233.75C379.248 233.75 345.672 226.594 343.928 225.231C342.185 223.867 342.119 221.843 342.027 219.819C341.936 217.794 341.529 213.394 341.634 212.087C341.831 209.81 339.091 211.173 337.858 213.577C336.626 215.981 336.796 220.015 336.102 220.901C335.407 221.787 327.081 215.629 322.991 212.663C318.9 209.697 315.767 206.956 314.05 209.121C312.817 210.667 314.482 213.113 317.498 215.784C319.157 217.145 320.701 218.66 322.113 220.311C322.519 220.817 321.798 221.52 321.549 221.913C321.09 222.672 320.238 223.909 320.382 224.851C320.515 225.342 320.603 225.846 320.644 226.355C320.644 227.522 319.477 228.38 319.333 229.546C319.254 230.39 319.753 231.177 319.792 232.035C319.792 232.569 319.674 233.117 319.713 233.665C319.802 234.194 319.998 234.694 320.288 235.132C320.578 235.569 320.955 235.933 321.391 236.196C324.25 238.389 327.501 238.642 330.779 239.555C333.506 240.314 336.128 240.258 339.196 240.806C342.263 241.355 380.232 255.201 386.656 251.828C392.555 248.721 420.573 219.495 420.573 219.495C430.038 207.265 424.099 190.79 424.099 190.79Z" fill="#FFA8A7"/>
<path d="M425.961 190.635C425.961 190.635 417.714 189.497 412.995 194.445C407.042 200.672 397.026 212.059 397.026 212.059C397.026 212.059 401.431 224.008 412.496 228.928C412.496 228.928 421.451 221.66 424.099 216.276C426.748 210.892 428.347 201.923 425.961 190.635Z" fill="#E0E0E0"/>
<path d="M521.733 222.939L477.236 235.507L464.991 289.488L507.299 276.316L521.733 222.939Z" fill="#F97800"/>
<path opacity="0.25" d="M521.733 222.939L477.236 235.507L464.991 289.488L507.299 276.316L521.733 222.939Z" fill="black"/>
<g opacity="0.1">
<path d="M501.622 261.162C502.375 262.824 503.564 264.214 505.042 265.163C506.521 266.111 508.225 266.577 509.947 266.504L510.275 265.309L501.622 261.162Z" fill="black"/>
</g>
<g opacity="0.1">
<path d="M508.335 231.514C508.335 231.514 508.492 230.699 508.702 229.687C508.911 228.675 506.289 228.647 502.867 229.603L496.312 231.416C492.89 232.372 489.94 233.96 489.757 234.959L489.39 236.786L508.335 231.514Z" fill="black"/>
</g>
<path d="M511.743 224.668C511.874 224.05 510.812 223.881 509.383 224.303L506.761 225.076C506.761 225.076 507.535 221.14 501.779 222.518C496.024 223.895 494.752 228.366 494.752 228.366L491.986 229.209C490.452 229.673 489.062 230.615 488.878 231.177L488.551 232.316L511.481 225.835C511.481 225.835 511.612 225.301 511.743 224.668Z" fill="#37474F"/>
<path d="M508.584 226.608C506.486 227.157 505.621 227.452 505.306 229.012C504.991 230.573 504.795 232.077 504.795 232.077L494.66 234.888C494.66 234.888 495.145 232.653 495.303 231.782C495.46 230.91 495.106 230.376 493.493 230.84L493.362 230.151L509.252 225.807L508.584 226.608Z" fill="#37474F"/>
<path d="M508.938 231.683L509.305 229.87C509.514 228.858 506.892 228.815 503.47 229.771L496.915 231.599C493.493 232.541 490.557 234.129 490.36 235.141L489.993 236.955L508.938 231.683Z" fill="#37474F"/>
<path d="M517.04 240.272C517.04 240.272 515.375 246.373 514.995 247.821C514.614 249.269 509.632 251.898 506.368 252.854C503.103 253.81 499.511 254.962 501.058 259.882C502.487 264.409 507.876 265.435 510.616 265.309C513.356 265.182 517.171 262.371 518.587 257.844C520.462 252.066 519.452 245.909 520.2 242.536C520.947 239.162 518.679 238.318 517.04 240.272Z" fill="#FFA8A7"/>
<path d="M432.883 158.936V165.964C433.472 165.964 434.055 165.84 434.599 165.598C435.143 165.357 435.638 165.003 436.054 164.556C436.47 164.11 436.801 163.58 437.026 162.996C437.251 162.413 437.367 161.788 437.367 161.157V153.27L432.883 158.936Z" fill="#263238"/>
<path d="M450.806 125.858C456.717 125.858 462.386 128.376 466.565 132.858C470.745 137.339 473.093 143.418 473.093 149.756V152.849H462.199C459.747 152.849 457.378 151.896 455.532 150.167C453.685 148.437 452.486 146.049 452.156 143.444L451.75 152.849C449.734 152.85 447.792 152.04 446.306 150.58C444.821 149.12 443.9 147.115 443.726 144.962L443.595 143.43C443.404 145.996 442.318 148.39 440.554 150.135C438.79 151.881 436.477 152.85 434.077 152.849H433.106L431.992 135.98L450.806 125.858Z" fill="#263238"/>
<path d="M432.241 158.64H440.907C440.907 158.711 440.907 158.781 440.907 158.851C440.911 160.389 441.483 161.862 442.498 162.947C443.513 164.033 444.888 164.643 446.322 164.643H447.082C448.516 164.643 449.891 164.033 450.906 162.947C451.921 161.862 452.493 160.389 452.497 158.851C452.498 158.454 452.458 158.058 452.379 157.67C452.706 157.186 453.136 156.79 453.632 156.517C454.129 156.243 454.679 156.099 455.237 156.096C455.663 156.053 456.093 156.109 456.498 156.259C456.903 156.41 457.273 156.651 457.584 156.968C457.389 157.559 457.287 158.182 457.282 158.809C457.286 160.346 457.858 161.819 458.873 162.905C459.888 163.991 461.263 164.601 462.697 164.601H463.523C464.255 164.639 464.988 164.518 465.675 164.244C466.363 163.97 466.991 163.549 467.522 163.007C468.054 162.465 468.477 161.812 468.766 161.09C469.055 160.367 469.204 159.588 469.204 158.802C469.204 158.016 469.055 157.237 468.766 156.514C468.477 155.792 468.054 155.139 467.522 154.597C466.991 154.055 466.363 153.634 465.675 153.36C464.988 153.086 464.255 152.965 463.523 153.003H462.815C461.847 153.006 460.899 153.289 460.068 153.821C459.238 154.352 458.556 155.114 458.095 156.026C457.306 155.353 456.306 155.031 455.302 155.126C454.112 155.169 452.983 155.697 452.143 156.602C451.736 155.54 451.044 154.631 450.154 153.99C449.265 153.349 448.219 153.006 447.148 153.003H446.322C445.089 153.017 443.897 153.481 442.943 154.319C441.989 155.158 441.331 156.32 441.078 157.614H431.349C431.689 157.911 431.989 158.256 432.241 158.64ZM458.305 158.851C458.298 158.212 458.409 157.578 458.633 156.986C458.857 156.393 459.188 155.854 459.608 155.4C460.027 154.946 460.527 154.587 461.078 154.342C461.628 154.097 462.219 153.971 462.815 153.973H463.641C464.833 153.973 465.977 154.481 466.821 155.386C467.664 156.29 468.138 157.516 468.138 158.795C468.138 160.074 467.664 161.3 466.821 162.204C465.977 163.109 464.833 163.617 463.641 163.617H462.815C461.629 163.621 460.49 163.122 459.645 162.229C458.8 161.337 458.319 160.123 458.305 158.851ZM441.812 158.851C441.812 158.218 441.928 157.591 442.154 157.006C442.38 156.421 442.711 155.889 443.129 155.442C443.546 154.994 444.042 154.639 444.588 154.397C445.133 154.154 445.718 154.029 446.309 154.029H447.082C448.275 154.029 449.419 154.537 450.262 155.442C451.105 156.346 451.579 157.572 451.579 158.851C451.579 160.13 451.105 161.356 450.262 162.261C449.419 163.165 448.275 163.673 447.082 163.673H446.256C445.077 163.651 443.953 163.133 443.127 162.231C442.301 161.329 441.838 160.116 441.838 158.851H441.812Z" fill="#F97800"/>
<path opacity="0.5" d="M432.241 158.64H440.907C440.907 158.711 440.907 158.781 440.907 158.851C440.911 160.389 441.483 161.862 442.498 162.947C443.513 164.033 444.888 164.643 446.322 164.643H447.082C448.516 164.643 449.891 164.033 450.906 162.947C451.921 161.862 452.493 160.389 452.497 158.851C452.498 158.454 452.458 158.058 452.379 157.67C452.706 157.186 453.136 156.79 453.632 156.517C454.129 156.243 454.679 156.099 455.237 156.096C455.663 156.053 456.093 156.109 456.498 156.259C456.903 156.41 457.273 156.651 457.584 156.968C457.389 157.559 457.287 158.182 457.282 158.809C457.286 160.346 457.858 161.819 458.873 162.905C459.888 163.991 461.263 164.601 462.697 164.601H463.523C464.255 164.639 464.988 164.518 465.675 164.244C466.363 163.97 466.991 163.549 467.522 163.007C468.054 162.465 468.477 161.812 468.766 161.09C469.055 160.367 469.204 159.588 469.204 158.802C469.204 158.016 469.055 157.237 468.766 156.514C468.477 155.792 468.054 155.139 467.522 154.597C466.991 154.055 466.363 153.634 465.675 153.36C464.988 153.086 464.255 152.965 463.523 153.003H462.815C461.847 153.006 460.899 153.289 460.068 153.821C459.238 154.352 458.556 155.114 458.095 156.026C457.306 155.353 456.306 155.031 455.302 155.126C454.112 155.169 452.983 155.697 452.143 156.602C451.736 155.54 451.044 154.631 450.154 153.99C449.265 153.349 448.219 153.006 447.148 153.003H446.322C445.089 153.017 443.897 153.481 442.943 154.319C441.989 155.158 441.331 156.32 441.078 157.614H431.349C431.689 157.911 431.989 158.256 432.241 158.64ZM458.305 158.851C458.298 158.212 458.409 157.578 458.633 156.986C458.857 156.393 459.188 155.854 459.608 155.4C460.027 154.946 460.527 154.587 461.078 154.342C461.628 154.097 462.219 153.971 462.815 153.973H463.641C464.833 153.973 465.977 154.481 466.821 155.386C467.664 156.29 468.138 157.516 468.138 158.795C468.138 160.074 467.664 161.3 466.821 162.204C465.977 163.109 464.833 163.617 463.641 163.617H462.815C461.629 163.621 460.49 163.122 459.645 162.229C458.8 161.337 458.319 160.123 458.305 158.851ZM441.812 158.851C441.812 158.218 441.928 157.591 442.154 157.006C442.38 156.421 442.711 155.889 443.129 155.442C443.546 154.994 444.042 154.639 444.588 154.397C445.133 154.154 445.718 154.029 446.309 154.029H447.082C448.275 154.029 449.419 154.537 450.262 155.442C451.105 156.346 451.579 157.572 451.579 158.851C451.579 160.13 451.105 161.356 450.262 162.261C449.419 163.165 448.275 163.673 447.082 163.673H446.256C445.077 163.651 443.953 163.133 443.127 162.231C442.301 161.329 441.838 160.116 441.838 158.851H441.812Z" fill="black"/>
</svg>
